<svg width="475" height="402" viewBox="0 0 475 402" fill="none" xmlns="http://www.w3.org/2000/svg">
<path d="M396.283 220.696C395.143 220.121 394.001 219.834 392.85 219.834C390.372 219.834 388.189 220.785 386.287 222.691L368.013 240.962C366.305 242.677 365.447 244.768 365.447 247.245V319.758C365.447 332.323 360.984 343.072 352.032 352.022C343.087 360.967 332.331 365.44 319.768 365.44H82.226C69.662 365.44 58.907 360.967 49.962 352.022C41.015 343.073 36.544 332.324 36.544 319.758V82.221C36.544 69.659 41.015 58.905 49.962 49.957C58.907 41.011 69.662 36.539 82.226 36.539H319.77C323.958 36.539 328.24 37.11 332.617 38.253C333.76 38.631 334.616 38.824 335.18 38.824C337.658 38.824 339.848 37.875 341.75 35.972L355.74 21.982C358.022 19.701 358.882 16.939 358.306 13.706C357.735 10.66 356.02 8.47 353.165 7.139C342.893 2.387 331.753 0 319.762 0H82.226C59.576 0 40.208 8.042 24.124 24.126C8.042 40.212 0 59.577 0 82.228V319.771C0 342.418 8.042 361.785 24.125 377.869C40.209 393.957 59.577 401.999 82.227 401.999H319.768C342.415 401.999 361.785 393.957 377.869 377.869C393.954 361.785 402.003 342.419 402.003 319.771V228.974C402.001 224.98 400.088 222.222 396.283 220.696Z" fill="#FFFDFD"/>
<path d="M467.95 56.815L436.541 25.406C431.973 20.839 426.545 18.555 420.262 18.555C413.987 18.555 408.555 20.839 403.991 25.406L219.265 210.131L144.181 135.042C139.612 130.472 134.186 128.191 127.907 128.191C121.627 128.191 116.203 130.472 111.633 135.042L80.228 166.447C75.66 171.015 73.374 176.441 73.374 182.724C73.374 189.004 75.66 194.428 80.228 198.998L202.995 321.765C207.564 326.336 212.99 328.616 219.269 328.616C225.548 328.616 230.973 326.337 235.543 321.765L467.947 89.362C472.512 84.795 474.801 79.368 474.801 73.088C474.801 66.808 472.518 61.382 467.95 56.815Z" fill="#FFFDFD"/>
</svg>
